<svg xmlns="http://www.w3.org/2000/svg" width="113" height="113" viewBox="0 0 113 113">
  <g id="Group_8" data-name="Group 8" transform="translate(-806 -257)">
    <circle id="Ellipse_2" data-name="Ellipse 2" cx="56.5" cy="56.5" r="56.5" transform="translate(806 257)" fill="#d8d8d8"/>
    <g id="_102989" data-name="102989" transform="translate(812.5 263.5)">
      <path id="Path_8" data-name="Path 8" d="M92.7-478.433l-2.366,1.567-2.673-.309a15.384,15.384,0,0,0-3.286-.132,10.6,10.6,0,0,0-2.607,2.251l-1.972,2.1-2.717.331a13.893,13.893,0,0,0-3.177.662,15.163,15.163,0,0,0-1.884,2.781L70.6-466.693l-2.476.9a16.693,16.693,0,0,0-2.98,1.346,9.1,9.1,0,0,0-1.227,3.178l-.745,2.714L61.2-457.226c-2.695,1.81-3.2,2.317-3.2,3.134a1.644,1.644,0,0,0,1.161,1.655c.811.309,1.271.11,4.316-1.964,2.848-1.942,2.739-1.81,3.681-5.186l.635-2.207,2.388-.927c1.315-.508,2.563-1.015,2.761-1.148a15.534,15.534,0,0,0,1.709-2.626l1.336-2.405,2.563-.287c2.541-.265,3.571-.6,3.922-1.192a23.98,23.98,0,0,1,1.643-1.876l1.468-1.567,2.585.331c1.424.177,2.695.331,2.848.331a19.353,19.353,0,0,0,2.607-1.567l2.366-1.567,1.336.486c.723.265,1.928.706,2.695.949l1.358.463,1.38-.463c.745-.243,1.95-.684,2.673-.949l1.336-.486,2.366,1.567a19.352,19.352,0,0,0,2.607,1.567c.153,0,1.424-.154,2.848-.331l2.585-.331,1.468,1.567a23.991,23.991,0,0,1,1.643,1.876c.351.6,1.38.927,3.922,1.192l2.563.287,1.336,2.405a15.533,15.533,0,0,0,1.709,2.626c.2.132,1.446.64,2.76,1.148l2.388.927.635,2.207c.329,1.214.723,2.472.854,2.8.351.861,5.631,4.436,6.551,4.436a1.817,1.817,0,0,0,1.753-1.721c0-.839-.5-1.346-3.2-3.156l-1.972-1.324-.745-2.714a9.1,9.1,0,0,0-1.227-3.178,16.692,16.692,0,0,0-2.98-1.346l-2.476-.9-1.424-2.494a15.164,15.164,0,0,0-1.884-2.781,13.894,13.894,0,0,0-3.177-.662l-2.717-.331-1.972-2.1a10.6,10.6,0,0,0-2.607-2.251,15.384,15.384,0,0,0-3.286.132l-2.673.309-2.366-1.567c-1.621-1.081-2.563-1.567-3.023-1.567a17.343,17.343,0,0,0-3.155.9l-2.5.927-2.5-.927a17.342,17.342,0,0,0-3.155-.9C95.267-480,94.325-479.515,92.7-478.433Z" transform="translate(-51.38 480)" fill="rgba(0,0,0,0.52)"/>
      <path id="Path_9" data-name="Path 9" d="M108.506-440.631c-.35.045-1.489.2-2.518.335-12.766,1.7-24.832,10.759-30.525,22.9A38.646,38.646,0,0,0,71.5-399.386a49.39,49.39,0,0,0,.307,6.039c2.825,18.162,16.4,32.03,34.182,34.915a58.022,58.022,0,0,0,11.825,0c17.781-2.885,31.357-16.753,34.182-34.915a49.387,49.387,0,0,0,.307-6.039,36.058,36.058,0,0,0-1.029-9.73,41.158,41.158,0,0,0-32.8-31.113A66.888,66.888,0,0,0,108.506-440.631Zm9.284,4.026A36.045,36.045,0,0,1,137.958-426a36.811,36.811,0,0,1,10.8,26.617,36.811,36.811,0,0,1-10.8,26.617A35.276,35.276,0,0,1,111.9-361.742a35.276,35.276,0,0,1-26.058-11.027,36.811,36.811,0,0,1-10.8-26.617A36.811,36.811,0,0,1,85.843-426a36.266,36.266,0,0,1,23.649-11.049A49.557,49.557,0,0,1,117.791-436.6Z" transform="translate(-61.9 449.371)" fill="rgba(0,0,0,0.2)"/>
      <path id="Path_10" data-name="Path 10" d="M212.342-410.507a11.415,11.415,0,0,0-7.724,12.358,11.549,11.549,0,0,0,12.976,9.644,11.446,11.446,0,0,0,8.915-15.183,11.815,11.815,0,0,0-7.525-6.973A13.036,13.036,0,0,0,212.342-410.507Zm6.665,3.729a7.66,7.66,0,0,1,4.59,7.172,6.93,6.93,0,0,1-2.3,5.274,6.791,6.791,0,0,1-5.429,2.3,6.79,6.79,0,0,1-5.429-2.3,7.474,7.474,0,0,1-1.258-9.313A7.828,7.828,0,0,1,219.007-406.777Z" transform="translate(-165.873 426.462)" fill="rgba(0,0,0,0.52)"/>
      <path id="Path_11" data-name="Path 11" d="M236.171-384.52a5.79,5.79,0,0,0-4.127,3.023,6.081,6.081,0,0,0-.066,4.656c1.236,2.538,4.678,4.016,6.157,2.648,1.148-1.059.574-2.582-1.125-3-1.258-.331-1.832-.927-1.832-1.964a1.884,1.884,0,0,1,1.765-1.854,1.966,1.966,0,0,0,1.765-1.788A2,2,0,0,0,236.171-384.52Z" transform="translate(-186.931 405.903)" fill="rgba(0,0,0,0.52)"/>
      <path id="Path_12" data-name="Path 12" d="M265.153-368.076a1.763,1.763,0,0,0-.706,2.825,1.833,1.833,0,0,0,3.31-1.192A1.808,1.808,0,0,0,265.153-368.076Z" transform="translate(-212.263 393.189)" fill="rgba(0,0,0,0.52)"/>
      <path id="Path_13" data-name="Path 13" d="M167.312-302.7a47.448,47.448,0,0,0-4.723,4.965c-.265.662-.2.861,1.523,4.325l1.787,3.641v4.943c0,5.738.221,7.15,1.567,10.019a25.008,25.008,0,0,0,8.54,9.511c2.825,2.008,6.135,3.751,7.106,3.751s4.281-1.743,7.106-3.751a25.008,25.008,0,0,0,8.54-9.511c1.346-2.869,1.567-4.281,1.567-10.019v-4.943l1.787-3.641c1.721-3.487,1.788-3.663,1.523-4.325a46.375,46.375,0,0,0-4.678-4.921c-3.376-3.266-4.524-4.259-5.031-4.3a8.962,8.962,0,0,0-2.582.6,22.555,22.555,0,0,1-8.231,1.214,22.732,22.732,0,0,1-8.187-1.192,11.838,11.838,0,0,0-2.538-.662C171.858-307,170.976-306.25,167.312-302.7Zm7.349.11a33.585,33.585,0,0,0,16.992-.022l1.589-.485,3.222,3.045a43.794,43.794,0,0,1,3.2,3.222,25.046,25.046,0,0,1-1.1,2.405l-1.1,2.207H168.769l-1.17-2.339-1.148-2.339,3.2-3.067a39.2,39.2,0,0,1,3.421-3.045A8.327,8.327,0,0,1,174.661-302.586Zm6.687,25.157v11.277l-.486-.265a33.447,33.447,0,0,1-6.576-5.054,15.164,15.164,0,0,1-4.149-6.223c-.552-1.523-.6-1.9-.662-6.311l-.088-4.678h11.961Zm15.447-7.128a28.98,28.98,0,0,1-.331,5.561c-1.081,4.5-4.767,8.739-10.747,12.358l-.839.508v-22.553h11.917Z" transform="translate(-133.113 345.967)" fill="rgba(0,0,0,0.52)"/>
      <path id="Path_14" data-name="Path 14" d="M33.539-314.306c-.485.463-.684,1.015-1.015,2.67-.375,1.986-.419,2.052-.706,1.5a1.762,1.762,0,0,0-3.376.6,15.968,15.968,0,0,0,1.479,3.8l1.479,3.067.132,2.339.11,2.361-.618-.53a2.285,2.285,0,0,0-1.28-.53A1.893,1.893,0,0,0,28-297.292c0,.662.154.883,3.553,5.031a7.6,7.6,0,0,1,1.832,3.553c.309,1.125.574,2.1.574,2.163,0,.044-.243-.066-.552-.265a2.139,2.139,0,0,0-2.229.154,2.292,2.292,0,0,0-.331,2.141,22.307,22.307,0,0,0,3.222,2.582c2.494,1.788,3.067,2.317,3.6,3.266.353.64.861,1.523,1.125,1.964l.485.816-.684-.2a1.828,1.828,0,0,0-1.986.552,1.957,1.957,0,0,0,.132,2.3,19.754,19.754,0,0,0,3.575,1.655c3.156,1.236,3.178,1.236,5.407,3.31,3.906,3.641,7.327,6.091,8.43,6.091a1.692,1.692,0,0,0,1.765-1.324c.2-.927-.243-1.545-1.92-2.67A44.869,44.869,0,0,1,41.7-278.953a43.625,43.625,0,0,1-6.135-16.4,48.546,48.546,0,0,1,.6-16.154c.353-1.5.265-2.3-.331-2.869A1.453,1.453,0,0,0,33.539-314.306Z" transform="translate(-28 352.441)" fill="rgba(0,0,0,0.52)"/>
      <path id="Path_15" data-name="Path 15" d="M377.426-314.372c-.6.574-.684,1.368-.331,2.869a48.546,48.546,0,0,1,.6,16.154,43.624,43.624,0,0,1-6.135,16.4,44.868,44.868,0,0,1-12.292,12.777c-1.677,1.125-2.118,1.743-1.92,2.67a1.692,1.692,0,0,0,1.765,1.324c1.1,0,4.524-2.45,8.43-6.091,2.229-2.074,2.251-2.074,5.407-3.31a21.158,21.158,0,0,0,3.6-1.655,1.991,1.991,0,0,0,.11-2.3,1.828,1.828,0,0,0-1.986-.552l-.684.2.486-.816c.265-.441.794-1.346,1.17-1.986.574-.971,1.192-1.545,3.619-3.288a22.214,22.214,0,0,0,3.156-2.538,1.8,1.8,0,0,0-2.626-2.251c-.265.177-.486.287-.486.221s.265-1.037.574-2.163a7.6,7.6,0,0,1,1.832-3.553c3.4-4.149,3.553-4.369,3.553-5.031a1.893,1.893,0,0,0-1.743-1.743,2.285,2.285,0,0,0-1.28.53l-.618.53.11-2.361.132-2.339,1.479-3.067a15.969,15.969,0,0,0,1.478-3.8,1.762,1.762,0,0,0-3.376-.6c-.287.552-.331.486-.706-1.5-.331-1.655-.53-2.207-1.015-2.67A1.453,1.453,0,0,0,377.426-314.372Z" transform="translate(-285.26 352.441)" fill="rgba(0,0,0,0.52)"/>
      <path id="Path_16" data-name="Path 16" d="M176.884-62.559c-3.4.419-3.884.684-3.884,2.03,0,1.721.772,1.986,4.436,1.545l2.758-.309,2.383,1.567c1.633,1.081,2.582,1.567,3.045,1.567a17.565,17.565,0,0,0,3.178-.9l2.516-.927,2.494.9c2.516.9,2.847.993,3.509.949a15.694,15.694,0,0,0,2.736-1.589l2.383-1.567,2.758.309c3.663.441,4.436.177,4.436-1.545,0-1.368-.463-1.589-4.083-2.052-1.832-.221-3.465-.419-3.685-.419a14.921,14.921,0,0,0-2.736,1.567l-2.383,1.567-1.346-.485c-.728-.265-1.942-.706-2.692-.949l-1.39-.463-1.368.463c-.772.243-1.986.684-2.714.949l-1.346.485L183.5-61.433a8.769,8.769,0,0,0-2.957-1.545C180.216-62.956,178.561-62.779,176.884-62.559Z" transform="translate(-141.316 156.128)" fill="rgba(0,0,0,0.52)"/>
    </g>
  </g>
</svg>
