<svg xmlns="http://www.w3.org/2000/svg" xmlns:xlink="http://www.w3.org/1999/xlink" width="62.583" height="93.705" viewBox="0 0 62.583 93.705">
  <defs>
    <linearGradient id="linear-gradient" x1="0.5" x2="0.5" y2="1" gradientUnits="objectBoundingBox">
      <stop offset="0" stop-color="#8e54e9"/>
      <stop offset="1" stop-color="#4776e6"/>
    </linearGradient>
  </defs>
  <path id="bolt" d="M32.351,93.7a8.832,8.832,0,0,1-3.7-.828A8.512,8.512,0,0,1,23.964,82.64l6.095-20.17H15.7A11.713,11.713,0,0,1,4.474,47.364L16.28,8.32A11.647,11.647,0,0,1,27.509,0H41.928a10.151,10.151,0,0,1,9.5,13.708L44.856,31.235H54.84a11.713,11.713,0,0,1,9.695,18.288L39.547,89.738A8.59,8.59,0,0,1,32.351,93.7Zm-4.841-85.9a3.9,3.9,0,0,0-3.74,2.772L11.962,49.625A3.9,3.9,0,0,0,15.7,54.661H35.318A3.9,3.9,0,0,1,39.055,59.7l-7.6,25.152a.714.714,0,0,0,.472.941.734.734,0,0,0,1.05-.285L57.963,45.291a3.9,3.9,0,0,0,.3-4.15,3.822,3.822,0,0,0-3.428-2.1H39.222a3.9,3.9,0,0,1-3.658-5.275l8.551-22.8a2.343,2.343,0,0,0-2.186-3.159Z" transform="translate(-3.971 0)" fill="url(#linear-gradient)"/>
</svg>
