<svg xmlns="http://www.w3.org/2000/svg" xmlns:xlink="http://www.w3.org/1999/xlink" width="84.235" height="87.851" viewBox="0 0 84.235 87.851">
  <defs>
    <linearGradient id="linear-gradient" x1="0.378" y1="0.95" x2="0.872" y2="-0.087" gradientUnits="objectBoundingBox">
      <stop offset="0" stop-color="#8e54e9"/>
      <stop offset="1" stop-color="#4776e6"/>
    </linearGradient>
  </defs>
  <path id="fingerprint" d="M21.859,81.568a3.66,3.66,0,0,1-1.885-6.8c12.968-7.789,12.968-24.516,12.968-34.508a10.981,10.981,0,1,1,21.961,0,3.66,3.66,0,0,1-7.32,0,3.66,3.66,0,1,0-7.32,0c0,10.787,0,30.87-16.522,40.786a3.66,3.66,0,0,1-1.881.52Zm18.166,5.2c8.353-8.418,13.232-20.256,14.5-35.215a3.66,3.66,0,0,0-3.334-3.971,3.6,3.6,0,0,0-3.957,3.334C46.093,64.3,42.037,74.342,34.83,81.593a3.661,3.661,0,1,0,5.194,5.161Zm19.033-.681a65.126,65.126,0,0,0,5.52-11.643,3.66,3.66,0,0,0-6.885-2.482,58.029,58.029,0,0,1-4.9,10.325,3.662,3.662,0,0,0,6.263,3.8Zm8.656-23.165a115.147,115.147,0,0,0,1.83-22.66,25.621,25.621,0,0,0-44.7-17.082,3.66,3.66,0,1,0,5.45,4.883,18.3,18.3,0,0,1,31.932,12.2,108.658,108.658,0,0,1-1.691,21.262,3.66,3.66,0,0,0,2.892,4.29,3.583,3.583,0,0,0,.706.07A3.66,3.66,0,0,0,67.714,62.923ZM25.621,40.262a18.3,18.3,0,0,1,.253-3.049,3.66,3.66,0,1,0-7.207-1.223,25.516,25.516,0,0,0-.366,4.271c0,17-4.927,25.621-14.641,25.621a3.66,3.66,0,1,0,0,7.32C17.821,73.2,25.621,61.491,25.621,40.262ZM75.766,85.7a108.927,108.927,0,0,0,8.418-45.438,39.768,39.768,0,0,0-4.026-17.547,3.663,3.663,0,0,0-6.588,3.2,32.576,32.576,0,0,1,3.294,14.344,102.156,102.156,0,0,1-7.756,42.407,3.66,3.66,0,0,0,1.83,4.846,3.6,3.6,0,0,0,1.512.329A3.66,3.66,0,0,0,75.766,85.7ZM10.981,51.243V40.262A32.978,32.978,0,0,1,43.922,7.321a32.616,32.616,0,0,1,19.765,6.588A3.66,3.66,0,1,0,68.08,8.053,39.9,39.9,0,0,0,43.922,0,40.31,40.31,0,0,0,3.66,40.262V51.243a3.66,3.66,0,1,0,7.32,0Z" transform="translate(0 0)" fill="url(#linear-gradient)"/>
</svg>
