<svg xmlns="http://www.w3.org/2000/svg" xmlns:xlink="http://www.w3.org/1999/xlink" width="79.863" height="77.317" viewBox="0 0 79.863 77.317">
  <defs>
    <linearGradient id="linear-gradient" x1="0.5" x2="0.5" y2="1" gradientUnits="objectBoundingBox">
      <stop offset="0" stop-color="#4776e6"/>
      <stop offset="1" stop-color="#8e54e9"/>
    </linearGradient>
  </defs>
  <path id="star" d="M79.31,28.825A10.58,10.58,0,0,0,69.1,21.417H54.562L50.146,7.652a10.74,10.74,0,0,0-20.455,0L25.274,21.417H10.734A10.74,10.74,0,0,0,4.41,40.827L16.245,49.48l-4.5,13.935A10.743,10.743,0,0,0,28.333,75.376l11.585-8.527,11.589,8.517A10.74,10.74,0,0,0,68.091,63.415l-4.5-13.935L75.44,40.827A10.574,10.574,0,0,0,79.31,28.825Zm-7.8,6.626L57.721,45.533a3.328,3.328,0,0,0-1.2,3.714l5.242,16.208A4.084,4.084,0,0,1,55.451,70L41.889,60.013a3.328,3.328,0,0,0-3.941,0L24.386,70a4.084,4.084,0,0,1-6.323-4.543l5.258-16.208a3.328,3.328,0,0,0-1.2-3.714L8.324,35.452a4.084,4.084,0,0,1,2.41-7.379H27.707a3.328,3.328,0,0,0,3.168-2.31L36.034,9.685a4.084,4.084,0,0,1,7.775,0l5.159,16.078a3.328,3.328,0,0,0,3.168,2.31H69.109a4.084,4.084,0,0,1,2.41,7.379Z" transform="translate(-0.008 -0.19)" fill="url(#linear-gradient)"/>
</svg>
